<?xml version="1.0" encoding="UTF-8" standalone="no"?> <svg xmlns="http://www.w3.org/2000/svg" xmlns:xlink="http://www.w3.org/1999/xlink" width="127" height="127" viewBox="0 0 127 127">
  <defs>
    <linearGradient id="linear-gradient" y1="0.358" x2="1.134" y2="0.35" gradientUnits="objectBoundingBox">
      <stop offset="0" stop-color="#e1e4fb"/>
      <stop offset="1" stop-color="#c5c9f7"/>
    </linearGradient>
  </defs>
  <g id="forms" transform="translate(-6.143 -6.143)">
    <path id="Path_32344" data-name="Path 32344" d="M63.5,0A63.5,63.5,0,1,1,0,63.5,63.5,63.5,0,0,1,63.5,0Z" transform="translate(6.143 6.143)" fill="#fe9923"/>
    <rect id="Rectangle_8006" data-name="Rectangle 8006" width="64" height="97" rx="1" transform="translate(39.143 22.143)" fill="#525354"/>
    <rect id="Rectangle_8007" data-name="Rectangle 8007" width="64" height="97" rx="1" transform="translate(37.143 21.143)" fill="url(#linear-gradient)"/>
    <rect id="Rectangle_8008" data-name="Rectangle 8008" width="31.772" height="3.971" rx="1" transform="translate(62.494 32.599)" fill="#adacb2"/>
    <rect id="Rectangle_8009" data-name="Rectangle 8009" width="19.857" height="3.971" rx="1" transform="translate(62.494 40.75)" fill="#adacb2"/>
    <rect id="Rectangle_8010" data-name="Rectangle 8010" width="7.943" height="7.943" rx="1" transform="translate(47.383 34.684)" fill="#fff"/>
    <path id="Path_32341" data-name="Path 32341" d="M49.349,38.705,47.84,37.2a1.082,1.082,0,0,0-1.529,0l-.9.9a1.082,1.082,0,0,0,0,1.529L49.379,43.6a1.082,1.082,0,0,0,1.529,0l1.638-1.658,5.312-5.312a1.082,1.082,0,0,0,0-1.529l-.943-.943a1.082,1.082,0,0,0-1.529,0l-4.547,4.547a1.082,1.082,0,0,1-1.489,0Z" transform="translate(-0.279 -0.199)" fill="#3053c2"/>
    <rect id="Rectangle_8011" data-name="Rectangle 8011" width="31.772" height="3.971" rx="1" transform="translate(62.494 53.121)" fill="#adacb2"/>
    <rect id="Rectangle_8012" data-name="Rectangle 8012" width="19.857" height="3.971" rx="1" transform="translate(62.494 61.273)" fill="#adacb2"/>
    <rect id="Rectangle_8013" data-name="Rectangle 8013" width="7.943" height="7.943" rx="1" transform="translate(47.383 55.207)" fill="#fff"/>
    <path id="Path_32342" data-name="Path 32342" d="M49.349,59.365,47.84,57.856a1.082,1.082,0,0,0-1.529,0l-.9.9a1.082,1.082,0,0,0,0,1.529l3.971,3.971a1.082,1.082,0,0,0,1.529,0l1.668-1.668,5.312-5.312a1.082,1.082,0,0,0,0-1.529l-.973-.923a1.082,1.082,0,0,0-1.529,0l-4.508,4.537a1.082,1.082,0,0,1-1.529,0Z" transform="translate(-0.279 -0.346)" fill="#3053c2"/>
    <rect id="Rectangle_8014" data-name="Rectangle 8014" width="31.772" height="3.971" rx="1" transform="translate(62.494 73.634)" fill="#adacb2"/>
    <rect id="Rectangle_8015" data-name="Rectangle 8015" width="19.857" height="3.971" rx="1" transform="translate(62.494 81.786)" fill="#adacb2"/>
    <rect id="Rectangle_8016" data-name="Rectangle 8016" width="7.943" height="7.943" rx="1" transform="translate(47.383 75.729)" fill="#fff"/>
    <path id="Path_32343" data-name="Path 32343" d="M49.349,80.035,47.84,78.526a1.082,1.082,0,0,0-1.529,0l-.9.9a1.082,1.082,0,0,0,0,1.529l3.971,3.971a1.082,1.082,0,0,0,1.529,0l1.668-1.668,5.312-5.312a1.082,1.082,0,0,0,0-1.529l-.973-.933a1.082,1.082,0,0,0-1.529,0l-4.547,4.547a1.082,1.082,0,0,1-1.489,0Z" transform="translate(-0.279 -0.493)" fill="#3053c2"/>
    <rect id="Rectangle_8017" data-name="Rectangle 8017" width="31.772" height="3.971" rx="1" transform="translate(62.494 94.157)" fill="#adacb2"/>
    <rect id="Rectangle_8018" data-name="Rectangle 8018" width="19.857" height="3.971" rx="1" transform="translate(62.494 102.308)" fill="#adacb2"/>
    <rect id="Rectangle_8019" data-name="Rectangle 8019" width="7.943" height="7.943" rx="1" transform="translate(47.383 96.242)" fill="#fff"/>
  </g>
</svg>
