<?xml version="1.0" encoding="UTF-8" standalone="no"?>
<svg id="Layer_1" data-name="Layer 1" xmlns="http://www.w3.org/2000/svg" viewBox="0 0 128 128">
    <defs>
        <style>.cls-1{fill:#77eb34;}</style>
    </defs>
    <title>a</title>
    <path class="cls-1"
          d="M109.15821,4.99371H18.84179A17.41961,17.41961,0,0,0,1.47324,22.36226V84.92357a17.41961,17.41961,0,0,0,17.36854,17.36854H64.72956l15.18963,19.70435a2.59308,2.59308,0,0,0,4.1087-.00191l15.1608-19.70244h9.96953a17.39717,17.39717,0,0,0,17.36854-17.36854V22.36226A17.39717,17.39717,0,0,0,109.15821,4.99371ZM39.9391,49.93355V69.6909H33.35338V56.51926H23.4746V69.6909H16.88867v-32.929H23.4746V49.93355h9.87878V36.76191H39.9391Zm23.05042-6.58593H49.81788v6.58593h9.87857v6.58571H49.81788v6.58593H62.98952V69.6909H46.525A3.293,3.293,0,0,1,43.232,66.398V40.05477A3.293,3.293,0,0,1,46.525,36.76191h16.4645ZM86.03973,69.6909H69.57523A3.293,3.293,0,0,1,66.28238,66.398V36.76191h6.58571V63.10519H86.03973Zm14.18148-11.62157h-4.3027V69.6909H89.3328V36.28911h10.88841a10.89011,10.89011,0,1,1,0,21.78022Z"/>
    <path class="cls-1" d="M100.22122,42.875h-4.3027V51.4834h4.3027a4.30418,4.30418,0,1,0,0-8.60837Z"/>
</svg>