<?xml version="1.0" encoding="UTF-8" standalone="no"?> <svg id="레이어_1" data-name="레이어 1" xmlns="http://www.w3.org/2000/svg" viewBox="0 0 48 48"><path d="M37.94,26.59l-1.58,1.57a.85.85,0,1,0,1.2,1.21l3-3h0a.92.92,0,0,0,.19-.28.88.88,0,0,0,.06-.33h0v0a.94.94,0,0,0-.06-.29.92.92,0,0,0-.19-.28h0l-3-2.94a.85.85,0,0,0-1.2,0,.86.86,0,0,0,0,1.21l1.49,1.48H32.55a.85.85,0,0,0,0,1.7Z"/><path d="M41.54,17.06H31.63a3.48,3.48,0,0,0-3.42,3.52,1,1,0,0,0,2,0,1.47,1.47,0,0,1,1.42-1.52h9.91A1.47,1.47,0,0,1,43,20.58V30.93a1.47,1.47,0,0,1-1.42,1.52H33.05a1,1,0,0,0,0,2h8.49A3.48,3.48,0,0,0,45,30.93V20.58A3.48,3.48,0,0,0,41.54,17.06Z"/><path d="M22.64,21A8,8,0,0,0,26,14.54a8.14,8.14,0,0,0-16.27,0A8,8,0,0,0,13,21c-4.64,1.23-8,5-8,9.53v9.07a1,1,0,0,0,1,1H29.67a1,1,0,0,0,1-1V30.52C30.67,26,27.28,22.22,22.64,21Zm-11-6.45a6.14,6.14,0,1,1,6.13,6A6.09,6.09,0,0,1,11.68,14.54Zm17,24.05H7V30.52c0-4.38,4.15-7.95,9.26-7.95H19.4c5.11,0,9.27,3.57,9.27,8Z"/></svg>